<?xml version="1.0" standalone="no"?><!DOCTYPE svg PUBLIC "-//W3C//DTD SVG 1.1//EN" "http://www.w3.org/Graphics/SVG/1.1/DTD/svg11.dtd"><svg t="1711642421430" class="icon" viewBox="0 0 1024 1024" version="1.1" xmlns="http://www.w3.org/2000/svg" p-id="2710" xmlns:xlink="http://www.w3.org/1999/xlink" width="24" height="24"><path d="M359.16001 820.430628" fill="#272636" p-id="2711"></path><path d="M182.239578 553.927925m-90.571808 0a88.509 88.509 0 1 0 181.143617 0 88.509 88.509 0 1 0-181.143617 0Z" p-id="2712"></path><path d="M532.225647 264.135796m-90.571808 0a88.509 88.509 0 1 0 181.143617 0 88.509 88.509 0 1 0-181.143617 0Z" p-id="2713"></path><path d="M532.225647 553.927925m-90.571808 0a88.509 88.509 0 1 0 181.143617 0 88.509 88.509 0 1 0-181.143617 0Z" p-id="2714"></path><path d="M258.440074 569.155744l0-30.455639c0-6.753821 5.525853-12.279674 12.279674-12.279674l158.647253 0c6.753821 0 12.279674 5.525853 12.279674 12.279674l0 30.455639c0 6.753821-5.525853 12.279674-12.279674 12.279674L270.719748 581.435419C263.965927 581.435419 258.440074 575.909565 258.440074 569.155744z" p-id="2715"></path><path d="M518.65149 354.712721l30.442336 0.89744c6.750751 0.199545 12.111852 5.885034 11.912307 12.636808l-2.570545 87.170339c-0.199545 6.750751-5.885034 12.111852-12.636808 11.912307l-30.442336-0.89744c-6.750751-0.199545-12.111852-5.885034-11.912307-12.636808l2.570545-87.170339C506.21525 359.874277 511.900739 354.513176 518.65149 354.712721z" p-id="2716"></path><path d="M756.37473 458.707236l9.41237 28.964682c2.087545 6.423293-1.460258 13.385868-7.883551 15.473413l-123.408681 40.102347c-6.423293 2.087545-13.385868-1.460258-15.473413-7.883551l-9.41237-28.964682c-2.087545-6.423293 1.460258-13.385868 7.883551-15.473413l123.408681-40.102347C747.323587 448.736141 754.287185 452.283943 756.37473 458.707236z" p-id="2717"></path><path d="M828.300876 435.848623m-90.571808 0a88.509 88.509 0 1 0 181.143617 0 88.509 88.509 0 1 0-181.143617 0Z" p-id="2718"></path><path d="M680.888502 743.359298l-25.15696 17.164938c-5.579065 3.806699-13.257955 2.356674-17.064654-3.222391l-77.16752-113.094778c-3.806699-5.579065-2.356674-13.257955 3.222391-17.064654l25.15696-17.164938c5.579065-3.806699 13.257955-2.356674 17.064654 3.222391l77.16752 113.094778C687.917592 731.87371 686.467567 739.552599 680.888502 743.359298z" p-id="2719"></path><path d="M721.233372 820.430628m-90.571808 0a88.509 88.509 0 1 0 181.143617 0 88.509 88.509 0 1 0-181.143617 0Z" p-id="2720"></path></svg>