<?xml version="1.0" standalone="no"?><!DOCTYPE svg PUBLIC "-//W3C//DTD SVG 1.1//EN" "http://www.w3.org/Graphics/SVG/1.1/DTD/svg11.dtd"><svg t="1712484808693" class="icon" viewBox="0 0 1024 1024" version="1.1" xmlns="http://www.w3.org/2000/svg" p-id="16409" xmlns:xlink="http://www.w3.org/1999/xlink" width="24" height="24"><path d="M401.152 576a128 128 0 1 0 221.696 128 128 128 0 0 0-221.696-128zM576 640a64 64 0 1 1-128 0 64 64 0 0 1 128 0z" fill="#14db10" p-id="16410"></path><path d="M512.64 576c21.312 0 32-11.968 32-35.904V355.84c0-23.936-10.688-35.904-32-35.904-21.376 0-32 11.968-32 35.904V540.16c0 23.936 10.624 35.904 32 35.904z" fill="#14db10" p-id="16411"></path><path d="M627.328 421.632c0-21.312-10.944-32-32.832-32h-62.336c-21.888 0-32.832 10.688-32.832 32 0 21.376 10.88 32 32.832 32h62.336c21.888 0 32.832-10.624 32.832-32z" fill="#14db10" p-id="16412"></path><path d="M512 64a1856.32 1856.32 0 0 0 448 102.208l-1.152 379.072C928.512 746.24 779.584 951.552 512 1024c-267.52-72.448-416.512-277.76-446.848-478.72L64 166.208A1856.32 1856.32 0 0 0 512 64z m0 73.408A1943.04 1943.04 0 0 1 138.88 226.56l0.96 313.728C166.4 704.896 286.464 886.528 512 952.32c225.536-65.792 345.536-247.424 372.16-412.032l1.024-313.728A1943.04 1943.04 0 0 1 512 137.408z" fill="#14db10" p-id="16413"></path></svg>