<?xml version="1.0" standalone="no"?><!DOCTYPE svg PUBLIC "-//W3C//DTD SVG 1.1//EN" "http://www.w3.org/Graphics/SVG/1.1/DTD/svg11.dtd"><svg t="1712484636784" class="icon" viewBox="0 0 1024 1024" version="1.1" xmlns="http://www.w3.org/2000/svg" p-id="15043" xmlns:xlink="http://www.w3.org/1999/xlink" width="24" height="24"><path d="M1024.000018 511.871427A511.992494 511.992494 0 1 1 512.007524 0a511.992494 511.992494 0 0 1 511.992494 511.871427z" fill="#14db10" p-id="15044" data-spm-anchor-id="a313x.search_index.0.i7.117c3a81s4SkqG" class="selected"></path><path d="M761.042417 406.422039a270.342691 270.342691 0 0 0-497.948718 0h-49.274284a316.227097 316.227097 0 0 1 596.497285 0zM281.495888 652.672389a269.616288 269.616288 0 0 0 460.902205 0h52.785228a316.227097 316.227097 0 0 1-566.714794 0zM341.908339 435.841328l-21.186731 100.969908a113.076611 113.076611 0 0 0-2.300274 16.707251h-1.089603a157.387146 157.387146 0 0 0-2.421341-16.586184L290.696983 435.841328h-41.768127l-27.240083 100.364573a92.253081 92.253081 0 0 0-2.663475 17.191519H218.056762a126.878253 126.878253 0 0 0-2.179207-16.586184L193.843355 435.841328h-45.400139l43.341999 151.93913h46.005473L262.972632 496.374846a117.313958 117.313958 0 0 0 3.510944-18.523256 76.030098 76.030098 0 0 0 2.421341 18.76539l23.24487 91.284545H339.123797L383.071131 435.841328zM588.15869 435.841328l-21.065665 100.969908a113.439812 113.439812 0 0 0-2.42134 16.707251h-1.089604a131.1156 131.1156 0 0 0-2.058139-16.707251l-24.213407-100.969908h-42.131329l-27.240083 100.243506a83.051986 83.051986 0 0 0-2.542407 17.191519h-0.968537a108.960332 108.960332 0 0 0-2.300273-16.586184L440.093705 435.841328h-45.400138l43.341998 151.93913H484.40424L509.222982 496.374846a117.313958 117.313958 0 0 0 2.905609-18.281122h0.968537a82.325584 82.325584 0 0 0 2.542407 18.281122l23.244871 91.284545h46.489742L629.684683 435.841328zM834.530107 435.841328l-21.186731 100.969908a113.076611 113.076611 0 0 0-2.05814 16.828318h-1.089603a157.387146 157.387146 0 0 0-2.05814-16.707251l-24.213407-100.969908h-42.494529L714.431608 536.205901a92.253081 92.253081 0 0 0-2.663475 17.191519h-0.968536a126.878253 126.878253 0 0 0-2.179207-16.586184L686.344056 435.841328h-45.400139l43.463066 151.93913h46.005474L755.5944 496.374846a117.313958 117.313958 0 0 0 2.905609-18.281122h0.968536a76.030098 76.030098 0 0 0 2.421341 18.76539l23.244871 91.284545h46.610808L875.692899 435.841328z" fill="#FFFFFF" p-id="15045"></path></svg>