<?xml version="1.0" standalone="no"?><!DOCTYPE svg PUBLIC "-//W3C//DTD SVG 1.1//EN" "http://www.w3.org/Graphics/SVG/1.1/DTD/svg11.dtd"><svg t="1712332946257" class="icon" viewBox="0 0 1024 1024" version="1.1" xmlns="http://www.w3.org/2000/svg" p-id="5089" xmlns:xlink="http://www.w3.org/1999/xlink" width="24" height="24"><path d="M424.533333 413.866667l209.066667-209.066667c2.133333-2.133333 6.4-4.266667 10.666667-4.266667s6.4 2.133333 10.666666 4.266667l78.933334 78.933333c2.133333 2.133333 4.266667 6.4 4.266666 10.666667s-2.133333 6.4-4.266666 10.666667l-298.666667 298.666666c-2.133333 2.133333-6.4 4.266667-10.666667 4.266667s-6.4-2.133333-10.666666-4.266667l-166.4-166.4c-2.133333-2.133333-4.266667-6.4-4.266667-10.666666s2.133333-6.4 4.266667-10.666667l78.933333-78.933333c2.133333-2.133333 6.4-4.266667 10.666667-4.266667s6.4 2.133333 10.666666 4.266667l76.8 76.8z m-196.266666 238.933333h569.6c8.533333 0 14.933333 2.133333 19.2 8.533333 6.4 6.4 8.533333 12.8 8.533333 19.2v142.933334h-625.066667v-142.933334c0-8.533333 2.133333-14.933333 8.533334-19.2 4.266667-4.266667 10.666667-8.533333 19.2-8.533333z m482.133333 57.6v27.733333h57.6v-27.733333h-57.6z" p-id="5090" fill="#db7110"></path></svg>