<?xml version="1.0" standalone="no"?><!DOCTYPE svg PUBLIC "-//W3C//DTD SVG 1.1//EN" "http://www.w3.org/Graphics/SVG/1.1/DTD/svg11.dtd"><svg t="1711959383326" class="icon" viewBox="0 0 1024 1024" version="1.1" xmlns="http://www.w3.org/2000/svg" p-id="33939" xmlns:xlink="http://www.w3.org/1999/xlink" width="24" height="24"><path d="M1003.52 797.696c-12.704-4.96-20.736-20.576-36.192-18.368-39.264 5.632-41.792-16.064-40.864-47.296 2.048-69.376 0.096-138.816 0.864-208.224 0.352-36.16-16.48-50.432-51.776-50.176-97.696 0.864-195.424-1.024-293.056 1.216-30.208 0.704-39.104-9.024-34.368-36.512 0.192-1.28 0-2.56 0-3.904 0.704-35.84-11.52-81.152 5.824-104.96 16.736-23.04 64.768-6.144 98.976-7.328 29.952-1.024 46.592-14.848 46.944-44.032 0.928-72 0.096-143.968 0.352-215.968 0.096-18.176-12.352-29.696-20.672-43.52H340.096c-16.128 17.92-21.664 38.56-21.184 62.816 1.12 61.632-0.064 123.392 0.512 185.024 0.448 43.36 11.968 54.272 54.944 55.296 2.56 0.064 5.12-0.16 7.68 0.064 29.024 2.56 78.336-11.36 83.456 6.048 12.384 42.656 6.56 91.2 4.608 137.216-0.672 15.872-18.944 8.512-28.992 8.544-96.352 0.576-192.704 0.32-289.12 0.352-48.832 0-59.232 9.92-59.392 57.536-0.16 73.216-0.608 146.496 0.352 219.744 0.256 19.296-4.096 29.6-25.28 26.688-20.64-2.88-35.84 9.12-51.52 19.776v185.088l23.136 23.136h223.68c14.144-17.408 19.808-36.96 19.136-59.648-1.12-38.496 0.256-77.056-0.512-115.52-0.832-41.472-11.328-51.296-53.44-52.896-59.488-2.144-59.488-2.144-59.488-61.28 0-47.52 0.832-95.04-0.352-142.496-0.416-18.528 5.568-24.064 23.968-23.872 86.016 0.832 172.032 0.768 258.048 0 17.216-0.16 21.664 5.728 21.504 22.112a6539.104 6539.104 0 0 0 0.064 185.856l-0.064-4.8c0.192 17.248-3.264 24.064-22.88 25.088-91.744 4.608-91.648 5.44-91.648 99.52 0 21.856 1.12 43.712-0.352 65.44-1.632 24.416 4.928 44.992 21.76 62.464h262.24c16.832-17.472 22.848-38.048 21.824-62.464-1.536-35.84-0.064-71.84-0.512-107.776-0.512-45.568-11.584-56.576-56.832-57.792-57.248-1.536-57.248-1.536-57.248-59.136 0-47.52 0.864-95.04-0.512-142.496-0.512-19.808 4.768-26.432 25.536-26.112 84.672 1.12 169.408 0.928 254.144 0.096 18.432-0.192 24.224 5.312 23.968 23.808a5096.992 5096.992 0 0 0 0 181.056c0.352 19.808-8.256 22.432-25.184 23.2-88.32 3.904-88.32 4.352-88.32 94.88 0 23.04 0.96 46.24-0.32 69.28-1.216 23.872 3.744 45.056 19.136 63.488h223.68l23.104-23.136v-185.088z" p-id="33940" fill="#1296db"></path></svg>