<?xml version="1.0" standalone="no"?><!DOCTYPE svg PUBLIC "-//W3C//DTD SVG 1.1//EN" "http://www.w3.org/Graphics/SVG/1.1/DTD/svg11.dtd"><svg t="1712031298975" class="icon" viewBox="0 0 1024 1024" version="1.1" xmlns="http://www.w3.org/2000/svg" p-id="7563" xmlns:xlink="http://www.w3.org/1999/xlink" width="24" height="24"><path d="M502.56 309.12c2.08 10.4 5.6 20 10.08 29.12l-50.88 51.04a191.712 191.712 0 0 0-181.568-58.816l1.248-0.224c-103.68 20.8-170.72 120.96-149.6 223.68s122.08 169.12 225.76 148.32a190.368 190.368 0 0 0 116.32-74.08l93.12 38.08c-4.48 21.12-4.64 43.52-0.16 65.92 18.24 89.12 105.92 146.56 195.84 128.64s148-104.96 129.76-193.92c-18.24-89.12-105.92-146.56-195.84-128.64a164.672 164.672 0 0 0-109.92 77.92L499.52 580.48a186.4 186.4 0 0 0-7.68-146.72l0.48 1.12 53.92-54.08c21.44 17.408 49.056 27.936 79.136 27.936 8.864 0 17.504-0.928 25.856-2.656l-0.832 0.128c68-13.6 111.84-79.2 98.08-146.56s-80-110.72-148-97.12-111.68 79.2-97.92 146.56z" p-id="7564" fill="#dbd510"></path></svg>