<?xml version="1.0" standalone="no"?><!DOCTYPE svg PUBLIC "-//W3C//DTD SVG 1.1//EN" "http://www.w3.org/Graphics/SVG/1.1/DTD/svg11.dtd"><svg t="1711642445581" class="icon" viewBox="0 0 1024 1024" version="1.1" xmlns="http://www.w3.org/2000/svg" p-id="2862" xmlns:xlink="http://www.w3.org/1999/xlink" width="24" height="24"><path d="M359.16001 820.430628" fill="#272636" p-id="2863"></path><path d="M850.201675 273.79376c-63.902402 0-115.89045 51.988048-115.89045 115.89045 0 7.615445 0.74599 15.058974 2.155083 22.268166l-116.913756 37.991266c-0.017396 0.00614-0.033769 0.014326-0.052189 0.019443-7.482415-10.105149-16.653285-19.023262-27.296693-26.386974-11.466146-7.934716-24.01802-13.635555-37.132712-17.006326l2.679016-90.850148c0.023536-0.793062-0.036839-1.568728-0.148379-2.329045 48.724725-13.704117 84.548628-58.536184 84.548628-111.581308 0-63.901379-51.988048-115.89045-115.89045-115.89045s-115.89045 51.988048-115.89045 115.89045c0 54.004985 37.133735 99.499132 87.208201 112.295576l-2.7486 93.218078c-25.943882 7.260357-48.347125 23.177885-63.869656 45.609781-5.361101 7.747451-9.698896 15.991206-12.993942 24.566512-1.571798-1.195222-3.418866-2.072195-5.477758-2.479471L289.354154 450.6487c0.221034-2.915399 0.333598-5.859451 0.333598-8.830109 0-63.902402-51.988048-115.89045-115.89045-115.89045S57.907874 377.917212 57.907874 441.819614c0 63.901379 51.988048 115.889427 115.89045 115.889427 39.33282 0 74.144674-19.700691 95.105055-49.748031l131.900076 26.106588c3.722788 0.73678 7.401574-0.167822 10.299577-2.196015 0.295735 2.587941 0.671289 5.176906 1.14201 7.762801 5.545296 30.454616 22.617114 56.927547 48.072879 74.541717 19.599384 13.561877 42.361807 20.621667 65.697281 20.621667 6.972808 0 13.997805-0.629333 21.002336-1.905396 6.29538-1.146103 12.417821-2.792603 18.329461-4.895497l76.114538 111.551632c-15.219633 19.61371-24.295336 44.222177-24.295336 70.914096 0 63.902402 51.988048 115.89045 115.89045 115.89045s115.89045-51.988048 115.89045-115.89045S796.960077 694.572152 733.057675 694.572152c-15.415085 0-30.133298 3.03308-43.600007 8.521071l-74.662467-109.424178c2.378164-2.824325 4.637624-5.774517 6.765077-8.849552 16.072047-23.227004 23.00904-50.89618 19.887956-78.69941l122.029264-39.654138c21.246907 23.970948 52.248991 39.108716 86.724177 39.108716 63.902402 0 115.89045-51.989071 115.89045-115.891474C966.091102 325.782831 914.104077 273.79376 850.201675 273.79376zM173.798325 524.120039c-45.381583 0-82.301448-36.919864-82.301448-82.301448 0-45.381583 36.920888-82.302471 82.301448-82.302471s82.301448 36.920888 82.301448 82.302471C256.099772 487.200174 219.178885 524.120039 173.798325 524.120039zM443.959348 201.810309c0-45.381583 36.920888-82.301448 82.302471-82.301448s82.301448 36.920888 82.301448 82.301448-36.919864 82.301448-82.301448 82.301448S443.959348 247.190869 443.959348 201.810309zM541.002544 599.847767c-21.626553 3.940752-43.494607-0.782829-61.572334-13.291724-18.077727-12.508895-30.201859-31.309076-34.139541-52.936653-3.937682-21.627577 0.782829-43.494607 13.291724-61.573357 12.508895-18.077727 31.309076-30.201859 52.937676-34.139541 4.977361-0.906649 9.962909-1.353834 14.915711-1.353834 16.571421 0 32.738635 5.015224 46.656623 14.645558 18.077727 12.508895 30.201859 31.309076 34.139541 52.937676 3.938706 21.626553-0.782829 43.494607-13.291724 61.572334C581.430302 583.785953 562.631144 595.910085 541.002544 599.847767zM815.359123 810.461579c0 45.381583-36.919864 82.301448-82.301448 82.301448-45.381583 0-82.301448-36.919864-82.301448-82.301448 0-45.381583 36.919864-82.301448 82.301448-82.301448C778.439258 728.160131 815.359123 765.079996 815.359123 810.461579zM850.201675 471.986681c-45.381583 0-82.301448-36.920888-82.301448-82.302471 0-45.381583 36.919864-82.301448 82.301448-82.301448 45.381583 0 82.301448 36.920888 82.301448 82.301448C932.503123 435.065793 895.583259 471.986681 850.201675 471.986681z" p-id="2864"></path></svg>